<svg width="32" height="32" viewBox="0 0 32 32" fill="none" xmlns="http://www.w3.org/2000/svg">
<path d="M7.13544 0.0142896L19.352 0.00930013C20.1403 0.00930013 20.9378 -0.00496703 21.7238 0.00858611C24.6879 0.0585187 27.1861 -0.3923 29.5732 1.73055C32.4441 4.28282 31.97 7.3872 31.9718 10.8304L31.9725 18.1712L31.9722 22.8998C31.971 25.5063 32.0709 27.6677 30.1174 29.7442C28.6313 31.3235 27.0376 31.8948 24.8956 31.9811L12.4291 31.9904C11.6038 31.9904 10.7634 31.9968 9.93959 31.9911C6.95915 31.9704 4.67165 32.3171 2.31762 30.1365C-0.469032 27.5557 0.0365465 24.3721 0.03476 20.9311L0.0342606 13.322L0.0354033 9.10916C0.0351175 8.03846 -0.0231931 6.70384 0.185041 5.67166C0.43365 4.39267 1.03391 3.20783 1.9188 2.24984C3.37851 0.688377 5.04617 0.0870485 7.13544 0.0142896Z" fill="#F55300"/>
<path d="M21.8165 15.9375L23.9614 15.9424C23.9614 17.535 23.5688 18.9335 22.4248 20.0985C21.7521 20.7776 20.9054 21.2592 19.9771 21.4905C18.9616 21.7474 17.3456 21.6732 16.2416 21.6715L12.1797 21.677C12.164 22.5371 12.1711 23.4223 12.1673 24.2847C11.364 23.6062 10.5041 22.7902 9.71682 22.0746L8.04053 20.5529C9.16747 19.462 10.9857 17.8214 12.1685 16.8342C12.1868 17.7123 12.1807 18.6144 12.1847 19.4948L16.5464 19.4969C17.3058 19.4969 18.7157 19.5477 19.4129 19.3802C19.9429 19.2569 20.4302 18.9946 20.8245 18.6204C21.6489 17.8285 21.7888 17 21.8165 15.9375Z" fill="#F4F4F3"/>
<path d="M19.86 7.71582C20.1876 7.84018 23.4461 10.888 23.9379 11.356C22.5909 12.611 21.2316 13.8529 19.8602 15.0812L19.8526 12.4015L15.3684 12.4081C14.1102 12.4081 12.7708 12.2461 11.6464 12.8821C10.4846 13.6598 10.2045 14.6651 10.1675 15.9817L8.03858 15.9719C8.03705 14.3269 8.40221 12.9617 9.60571 11.7656C11.3873 9.99405 13.3446 10.2504 15.6453 10.2499L19.8535 10.2515L19.86 7.71582Z" fill="#F4F4F3"/>
</svg>
